<?xml version="1.0" encoding="UTF-8" standalone="no"?>
<!DOCTYPE svg PUBLIC "-//W3C//DTD SVG 1.1//EN"
 "http://www.w3.org/Graphics/SVG/1.1/DTD/svg11.dtd">
<!-- Generated by graphviz version 13.1.0 (20250701.0955)
 -->
<!-- Title: button driver function Pages: 1 -->
<svg width="262pt" height="240pt"
 viewBox="0.00 0.00 262.00 240.00" xmlns="http://www.w3.org/2000/svg" xmlns:xlink="http://www.w3.org/1999/xlink">
<g id="graph0" class="graph" transform="scale(1 1) rotate(0) translate(4 236)">
<title>button driver function</title>
<!-- Node3 -->
<g id="Node000003" class="node">
<title>Node3</title>
<g id="a_Node000003"><a xlink:href="group__button__basic__driver.html" target="_top" xlink:title="button basic driver modules">
<polygon fill="white" stroke="#666666" points="246.88,-232 150.62,-232 150.62,-200 246.88,-200 246.88,-232"/>
<text xml:space="preserve" text-anchor="start" x="158.62" y="-218.5" font-family="Helvetica,sans-Serif" font-size="10.00">button basic driver</text>
<text xml:space="preserve" text-anchor="middle" x="198.75" y="-206.5" font-family="Helvetica,sans-Serif" font-size="10.00"> function</text>
</a>
</g>
</g>
<!-- Node1 -->
<g id="Node000001" class="node">
<title>Node1</title>
<g id="a_Node000001"><a xlink:title="button driver modules">
<polygon fill="#999999" stroke="#666666" points="107.5,-126 0,-126 0,-106 107.5,-106 107.5,-126"/>
<text xml:space="preserve" text-anchor="middle" x="53.75" y="-112.5" font-family="Helvetica,sans-Serif" font-size="10.00">button driver function</text>
</a>
</g>
</g>
<!-- Node1&#45;&gt;Node3 -->
<g id="edge2" class="edge">
<title>Node1&#45;&gt;Node3</title>
<path fill="none" stroke="black" d="M73.26,-134.25C90.45,-150.53 117.27,-174.31 143.5,-191 148.31,-194.06 153.56,-196.96 158.84,-199.63"/>
<polygon fill="black" stroke="black" points="75.93,-131.95 66.3,-127.54 71.08,-137 75.93,-131.95"/>
</g>
<!-- Node5 -->
<g id="Node000005" class="node">
<title>Node5</title>
<g id="a_Node000005"><a xlink:href="group__button__example__driver.html" target="_top" xlink:title="button example driver modules">
<polygon fill="white" stroke="#666666" points="253.62,-182 143.88,-182 143.88,-150 253.62,-150 253.62,-182"/>
<text xml:space="preserve" text-anchor="start" x="151.88" y="-168.5" font-family="Helvetica,sans-Serif" font-size="10.00">button example driver</text>
<text xml:space="preserve" text-anchor="middle" x="198.75" y="-156.5" font-family="Helvetica,sans-Serif" font-size="10.00"> function</text>
</a>
</g>
</g>
<!-- Node1&#45;&gt;Node5 -->
<g id="edge4" class="edge">
<title>Node1&#45;&gt;Node5</title>
<path fill="none" stroke="black" d="M95.54,-130.26C112.73,-136.27 132.83,-143.3 150.64,-149.53"/>
<polygon fill="black" stroke="black" points="96.75,-126.98 86.16,-126.98 94.44,-133.59 96.75,-126.98"/>
</g>
<!-- Node4 -->
<g id="Node000004" class="node">
<title>Node4</title>
<g id="a_Node000004"><a xlink:href="group__button__interface__driver.html" target="_top" xlink:title="button interface driver modules">
<polygon fill="white" stroke="#666666" points="254,-132 143.5,-132 143.5,-100 254,-100 254,-132"/>
<text xml:space="preserve" text-anchor="start" x="151.5" y="-118.5" font-family="Helvetica,sans-Serif" font-size="10.00">button interface driver</text>
<text xml:space="preserve" text-anchor="middle" x="198.75" y="-106.5" font-family="Helvetica,sans-Serif" font-size="10.00"> function</text>
</a>
</g>
</g>
<!-- Node1&#45;&gt;Node4 -->
<g id="edge3" class="edge">
<title>Node1&#45;&gt;Node4</title>
<path fill="none" stroke="black" d="M119.42,-116C127.31,-116 135.3,-116 143.02,-116"/>
<polygon fill="black" stroke="black" points="119.51,-112.5 109.51,-116 119.51,-119.5 119.51,-112.5"/>
</g>
<!-- Node2 -->
<g id="Node000002" class="node">
<title>Node2</title>
<g id="a_Node000002"><a xlink:href="group__button__link__driver.html" target="_top" xlink:title="button link driver modules">
<polygon fill="white" stroke="#666666" points="242.75,-82 154.75,-82 154.75,-50 242.75,-50 242.75,-82"/>
<text xml:space="preserve" text-anchor="start" x="162.75" y="-68.5" font-family="Helvetica,sans-Serif" font-size="10.00">button link driver</text>
<text xml:space="preserve" text-anchor="middle" x="198.75" y="-56.5" font-family="Helvetica,sans-Serif" font-size="10.00"> function</text>
</a>
</g>
</g>
<!-- Node1&#45;&gt;Node2 -->
<g id="edge1" class="edge">
<title>Node1&#45;&gt;Node2</title>
<path fill="none" stroke="black" d="M95.44,-101.77C113.91,-95.32 135.76,-87.68 154.52,-81.12"/>
<polygon fill="black" stroke="black" points="94.44,-98.41 86.16,-105.02 96.75,-105.02 94.44,-98.41"/>
</g>
<!-- Node6 -->
<g id="Node000006" class="node">
<title>Node6</title>
<g id="a_Node000006"><a xlink:href="group__button__test__driver.html" target="_top" xlink:title="button test driver modules">
<polygon fill="white" stroke="#666666" points="243.5,-32 154,-32 154,0 243.5,0 243.5,-32"/>
<text xml:space="preserve" text-anchor="start" x="162" y="-18.5" font-family="Helvetica,sans-Serif" font-size="10.00">button test driver</text>
<text xml:space="preserve" text-anchor="middle" x="198.75" y="-6.5" font-family="Helvetica,sans-Serif" font-size="10.00"> function</text>
</a>
</g>
</g>
<!-- Node1&#45;&gt;Node6 -->
<g id="edge5" class="edge">
<title>Node1&#45;&gt;Node6</title>
<path fill="none" stroke="black" d="M73.26,-97.75C90.45,-81.47 117.27,-57.69 143.5,-41 148.31,-37.94 153.56,-35.04 158.84,-32.37"/>
<polygon fill="black" stroke="black" points="71.08,-95 66.3,-104.46 75.93,-100.05 71.08,-95"/>
</g>
</g>
</svg>
