<?xml version="1.0" encoding="UTF-8" standalone="no"?>
<!DOCTYPE svg PUBLIC "-//W3C//DTD SVG 1.1//EN"
 "http://www.w3.org/Graphics/SVG/1.1/DTD/svg11.dtd">
<!-- Generated by graphviz version 13.1.0 (20250701.0955)
 -->
<!-- Title: button_basic_init Pages: 1 -->
<svg width="294pt" height="382pt"
 viewBox="0.00 0.00 294.00 382.00" xmlns="http://www.w3.org/2000/svg" xmlns:xlink="http://www.w3.org/1999/xlink">
<g id="graph0" class="graph" transform="scale(1 1) rotate(0) translate(4 378)">
<title>button_basic_init</title>
<!-- Node1 -->
<g id="Node000001" class="node">
<title>Node1</title>
<g id="a_Node000001"><a xlink:title="basic example init">
<polygon fill="#999999" stroke="#666666" points="89.5,-191 0,-191 0,-171 89.5,-171 89.5,-191"/>
<text xml:space="preserve" text-anchor="middle" x="44.75" y="-177.5" font-family="Helvetica,sans-Serif" font-size="10.00">button_basic_init</text>
</a>
</g>
</g>
<!-- Node2 -->
<g id="Node000002" class="node">
<title>Node2</title>
<g id="a_Node000002"><a xlink:href="group__button__basic__driver.html#ga1dd54007b21a309d82bbfb10544cec34" target="_top" xlink:title="close the chip">
<polygon fill="white" stroke="#666666" points="241.62,-374 170.12,-374 170.12,-354 241.62,-354 241.62,-374"/>
<text xml:space="preserve" text-anchor="middle" x="205.88" y="-360.5" font-family="Helvetica,sans-Serif" font-size="10.00">button_deinit</text>
</a>
</g>
</g>
<!-- Node1&#45;&gt;Node2 -->
<g id="edge1_Node000001_Node000002" class="edge">
<title>Node1&#45;&gt;Node2</title>
<g id="a_edge1_Node000001_Node000002"><a xlink:title=" ">
<path fill="none" stroke="#63b8ff" d="M47.61,-191.36C53.4,-220.48 73.91,-303.57 125.5,-345 134.96,-352.6 146.97,-357.24 158.77,-360.05"/>
<polygon fill="#63b8ff" stroke="#63b8ff" points="157.96,-363.46 168.44,-361.93 159.3,-356.59 157.96,-363.46"/>
</a>
</g>
</g>
<!-- Node3 -->
<g id="Node000003" class="node">
<title>Node3</title>
<g id="a_Node000003"><a xlink:href="group__button__basic__driver.html#ga42abfb8199fca33fcae7be917887c245" target="_top" xlink:title="initialize the chip">
<polygon fill="white" stroke="#666666" points="236.38,-336 175.38,-336 175.38,-316 236.38,-316 236.38,-336"/>
<text xml:space="preserve" text-anchor="middle" x="205.88" y="-322.5" font-family="Helvetica,sans-Serif" font-size="10.00">button_init</text>
</a>
</g>
</g>
<!-- Node1&#45;&gt;Node3 -->
<g id="edge2_Node000001_Node000003" class="edge">
<title>Node1&#45;&gt;Node3</title>
<g id="a_edge2_Node000001_Node000003"><a xlink:title=" ">
<path fill="none" stroke="#63b8ff" d="M49.22,-191.39C57.9,-215.72 82.96,-276.58 125.5,-307 136.64,-314.97 150.69,-319.63 163.86,-322.34"/>
<polygon fill="#63b8ff" stroke="#63b8ff" points="163.17,-325.77 173.62,-324 164.35,-318.87 163.17,-325.77"/>
</a>
</g>
</g>
<!-- Node4 -->
<g id="Node000004" class="node">
<title>Node4</title>
<g id="a_Node000004"><a xlink:href="group__button__interface__driver.html#gab03ce310f2829ee1eb0b8a7f82ec3f3a" target="_top" xlink:title="interface print format data">
<polygon fill="white" stroke="#666666" points="264.5,-298 147.25,-298 147.25,-266 264.5,-266 264.5,-298"/>
<text xml:space="preserve" text-anchor="start" x="155.25" y="-284.5" font-family="Helvetica,sans-Serif" font-size="10.00">button_interface_debug</text>
<text xml:space="preserve" text-anchor="middle" x="205.88" y="-272.5" font-family="Helvetica,sans-Serif" font-size="10.00">_print</text>
</a>
</g>
</g>
<!-- Node1&#45;&gt;Node4 -->
<g id="edge3_Node000001_Node000004" class="edge">
<title>Node1&#45;&gt;Node4</title>
<g id="a_edge3_Node000001_Node000004"><a xlink:title=" ">
<path fill="none" stroke="#63b8ff" d="M53.93,-191.41C67.25,-207.68 95.19,-239.11 125.5,-257 129.07,-259.11 132.84,-261.06 136.71,-262.85"/>
<polygon fill="#63b8ff" stroke="#63b8ff" points="135.19,-266.01 145.76,-266.69 137.92,-259.56 135.19,-266.01"/>
</a>
</g>
</g>
<!-- Node5 -->
<g id="Node000005" class="node">
<title>Node5</title>
<g id="a_Node000005"><a xlink:href="group__button__interface__driver.html#ga89d7c4c837ed636626f53aef79314d7b" target="_top" xlink:title="interface delay ms">
<polygon fill="white" stroke="#666666" points="272.38,-248 139.38,-248 139.38,-228 272.38,-228 272.38,-248"/>
<text xml:space="preserve" text-anchor="middle" x="205.88" y="-234.5" font-family="Helvetica,sans-Serif" font-size="10.00">button_interface_delay_ms</text>
</a>
</g>
</g>
<!-- Node1&#45;&gt;Node5 -->
<g id="edge4_Node000001_Node000005" class="edge">
<title>Node1&#45;&gt;Node5</title>
<g id="a_edge4_Node000001_Node000005"><a xlink:title=" ">
<path fill="none" stroke="#63b8ff" d="M64.61,-191.37C80.47,-199.76 103.95,-211.38 125.5,-219 131.18,-221.01 137.16,-222.87 143.18,-224.59"/>
<polygon fill="#63b8ff" stroke="#63b8ff" points="142,-227.89 152.56,-227.11 143.82,-221.13 142,-227.89"/>
</a>
</g>
</g>
<!-- Node6 -->
<g id="Node000006" class="node">
<title>Node6</title>
<g id="a_Node000006"><a xlink:href="group__button__interface__driver.html#gaaf8fb44b488d5068dc5d98f143d43f46" target="_top" xlink:title="interface timestamp read">
<polygon fill="white" stroke="#666666" points="286.25,-210 125.5,-210 125.5,-190 286.25,-190 286.25,-210"/>
<text xml:space="preserve" text-anchor="middle" x="205.88" y="-196.5" font-family="Helvetica,sans-Serif" font-size="10.00">button_interface_timestamp_read</text>
</a>
</g>
</g>
<!-- Node1&#45;&gt;Node6 -->
<g id="edge5_Node000001_Node000006" class="edge">
<title>Node1&#45;&gt;Node6</title>
<g id="a_edge5_Node000001_Node000006"><a xlink:title=" ">
<path fill="none" stroke="#63b8ff" d="M89.65,-186.24C97.24,-187.15 105.38,-188.12 113.69,-189.11"/>
<polygon fill="#63b8ff" stroke="#63b8ff" points="113.24,-192.58 123.58,-190.29 114.07,-185.63 113.24,-192.58"/>
</a>
</g>
</g>
<!-- Node7 -->
<g id="Node000007" class="node">
<title>Node7</title>
<g id="a_Node000007"><a xlink:href="group__button__basic__driver.html#gaf315dfa75218d1c43833801ad6484c9b" target="_top" xlink:title="set interval">
<polygon fill="white" stroke="#666666" points="255.12,-172 156.62,-172 156.62,-152 255.12,-152 255.12,-172"/>
<text xml:space="preserve" text-anchor="middle" x="205.88" y="-158.5" font-family="Helvetica,sans-Serif" font-size="10.00">button_set_interval</text>
</a>
</g>
</g>
<!-- Node1&#45;&gt;Node7 -->
<g id="edge6_Node000001_Node000007" class="edge">
<title>Node1&#45;&gt;Node7</title>
<g id="a_edge6_Node000001_Node000007"><a xlink:title=" ">
<path fill="none" stroke="#63b8ff" d="M89.65,-175.76C106.79,-173.71 126.72,-171.33 145.13,-169.13"/>
<polygon fill="#63b8ff" stroke="#63b8ff" points="145.34,-172.63 154.86,-167.97 144.51,-165.68 145.34,-172.63"/>
</a>
</g>
</g>
<!-- Node8 -->
<g id="Node000008" class="node">
<title>Node8</title>
<g id="a_Node000008"><a xlink:href="group__button__basic__driver.html#gab23156d6e3a813faeb505a14184fed10" target="_top" xlink:title="set long time">
<polygon fill="white" stroke="#666666" points="260.38,-134 151.38,-134 151.38,-114 260.38,-114 260.38,-134"/>
<text xml:space="preserve" text-anchor="middle" x="205.88" y="-120.5" font-family="Helvetica,sans-Serif" font-size="10.00">button_set_long_time</text>
</a>
</g>
</g>
<!-- Node1&#45;&gt;Node8 -->
<g id="edge7_Node000001_Node000008" class="edge">
<title>Node1&#45;&gt;Node8</title>
<g id="a_edge7_Node000001_Node000008"><a xlink:title=" ">
<path fill="none" stroke="#63b8ff" d="M64.61,-170.63C80.47,-162.24 103.95,-150.62 125.5,-143 131.18,-140.99 137.16,-139.13 143.18,-137.41"/>
<polygon fill="#63b8ff" stroke="#63b8ff" points="143.82,-140.87 152.56,-134.89 142,-134.11 143.82,-140.87"/>
</a>
</g>
</g>
<!-- Node9 -->
<g id="Node000009" class="node">
<title>Node9</title>
<g id="a_Node000009"><a xlink:href="group__button__basic__driver.html#ga323c3f770912f5ed1df416cb0a048e6a" target="_top" xlink:title="set repeat time">
<polygon fill="white" stroke="#666666" points="264.88,-96 146.88,-96 146.88,-76 264.88,-76 264.88,-96"/>
<text xml:space="preserve" text-anchor="middle" x="205.88" y="-82.5" font-family="Helvetica,sans-Serif" font-size="10.00">button_set_repeat_time</text>
</a>
</g>
</g>
<!-- Node1&#45;&gt;Node9 -->
<g id="edge8_Node000001_Node000009" class="edge">
<title>Node1&#45;&gt;Node9</title>
<g id="a_edge8_Node000001_Node000009"><a xlink:title=" ">
<path fill="none" stroke="#63b8ff" d="M53.58,-170.61C66.61,-154.07 94.42,-121.91 125.5,-105 128.9,-103.15 132.48,-101.48 136.16,-99.97"/>
<polygon fill="#63b8ff" stroke="#63b8ff" points="137.12,-103.35 145.32,-96.64 134.73,-96.77 137.12,-103.35"/>
</a>
</g>
</g>
<!-- Node10 -->
<g id="Node000010" class="node">
<title>Node10</title>
<g id="a_Node000010"><a xlink:href="group__button__basic__driver.html#ga749afda32d928275be78cf8f8bd0b94f" target="_top" xlink:title="set short time">
<polygon fill="white" stroke="#666666" points="262.25,-58 149.5,-58 149.5,-38 262.25,-38 262.25,-58"/>
<text xml:space="preserve" text-anchor="middle" x="205.88" y="-44.5" font-family="Helvetica,sans-Serif" font-size="10.00">button_set_short_time</text>
</a>
</g>
</g>
<!-- Node1&#45;&gt;Node10 -->
<g id="edge9_Node000001_Node000010" class="edge">
<title>Node1&#45;&gt;Node10</title>
<g id="a_edge9_Node000001_Node000010"><a xlink:title=" ">
<path fill="none" stroke="#63b8ff" d="M49.94,-170.58C59.62,-147.93 85.77,-94.05 125.5,-67 129.63,-64.19 134.13,-61.79 138.82,-59.75"/>
<polygon fill="#63b8ff" stroke="#63b8ff" points="139.76,-63.13 147.89,-56.34 137.3,-56.58 139.76,-63.13"/>
</a>
</g>
</g>
<!-- Node11 -->
<g id="Node000011" class="node">
<title>Node11</title>
<g id="a_Node000011"><a xlink:href="group__button__basic__driver.html#ga64fc568819cb0e7f975f2c54d5d5f002" target="_top" xlink:title="set timeout">
<polygon fill="white" stroke="#666666" points="255.5,-20 156.25,-20 156.25,0 255.5,0 255.5,-20"/>
<text xml:space="preserve" text-anchor="middle" x="205.88" y="-6.5" font-family="Helvetica,sans-Serif" font-size="10.00">button_set_timeout</text>
</a>
</g>
</g>
<!-- Node1&#45;&gt;Node11 -->
<g id="edge10_Node000001_Node000011" class="edge">
<title>Node1&#45;&gt;Node11</title>
<g id="a_edge10_Node000001_Node000011"><a xlink:title=" ">
<path fill="none" stroke="#63b8ff" d="M48.05,-170.59C54.72,-142.88 76.82,-66.88 125.5,-29 131.36,-24.44 138.15,-20.95 145.24,-18.28"/>
<polygon fill="#63b8ff" stroke="#63b8ff" points="145.85,-21.76 154.32,-15.4 143.73,-15.09 145.85,-21.76"/>
</a>
</g>
</g>
</g>
</svg>
