<?xml version="1.0" encoding="UTF-8" standalone="no"?>
<!DOCTYPE svg PUBLIC "-//W3C//DTD SVG 1.1//EN"
 "http://www.w3.org/Graphics/SVG/1.1/DTD/svg11.dtd">
<!-- Generated by graphviz version 13.1.0 (20250701.0955)
 -->
<!-- Title: button_handle_s Pages: 1 -->
<svg width="190pt" height="176pt"
 viewBox="0.00 0.00 190.00 176.00" xmlns="http://www.w3.org/2000/svg" xmlns:xlink="http://www.w3.org/1999/xlink">
<g id="graph0" class="graph" transform="scale(1 1) rotate(0) translate(4 172)">
<title>button_handle_s</title>
<!-- Node1 -->
<g id="Node000001" class="node">
<title>Node1</title>
<g id="a_Node000001"><a xlink:title="button handle structure definition">
<polygon fill="#999999" stroke="#666666" points="87.25,-20 0,-20 0,0 87.25,0 87.25,-20"/>
<text xml:space="preserve" text-anchor="middle" x="43.62" y="-6.5" font-family="Helvetica,sans-Serif" font-size="10.00">button_handle_s</text>
</a>
</g>
</g>
<!-- Node2 -->
<g id="Node000002" class="node">
<title>Node2</title>
<g id="a_Node000002"><a xlink:href="structbutton__time__s.html" target="_top" xlink:title="button time structure definition">
<polygon fill="white" stroke="#666666" points="82.38,-168 4.88,-168 4.88,-148 82.38,-148 82.38,-168"/>
<text xml:space="preserve" text-anchor="middle" x="43.62" y="-154.5" font-family="Helvetica,sans-Serif" font-size="10.00">button_time_s</text>
</a>
</g>
</g>
<!-- Node2&#45;&gt;Node1 -->
<g id="edge1_Node000001_Node000002" class="edge">
<title>Node2&#45;&gt;Node1</title>
<g id="a_edge1_Node000001_Node000002"><a xlink:title=" ">
<path fill="none" stroke="#9a32cd" stroke-dasharray="5,2" d="M40.85,-136.37C39.34,-124.09 37.63,-108.19 36.88,-94 35.44,-67.15 39.65,-35.5 42.07,-20.2"/>
<polygon fill="#9a32cd" stroke="#9a32cd" points="37.36,-136.66 42.11,-146.13 44.3,-135.77 37.36,-136.66"/>
</a>
</g>
<text xml:space="preserve" text-anchor="start" x="39.88" y="-80.5" font-family="Helvetica,sans-Serif" font-size="10.00" fill="grey">last_time</text>
</g>
<!-- Node3 -->
<g id="Node000003" class="node">
<title>Node3</title>
<g id="a_Node000003"><a xlink:href="structbutton__decode__s.html" target="_top" xlink:title="button decode structure definition">
<polygon fill="white" stroke="#666666" points="181.75,-94 91.5,-94 91.5,-74 181.75,-74 181.75,-94"/>
<text xml:space="preserve" text-anchor="middle" x="136.62" y="-80.5" font-family="Helvetica,sans-Serif" font-size="10.00">button_decode_s</text>
</a>
</g>
</g>
<!-- Node2&#45;&gt;Node3 -->
<g id="edge3_Node000003_Node000002" class="edge">
<title>Node2&#45;&gt;Node3</title>
<g id="a_edge3_Node000003_Node000002"><a xlink:title=" ">
<path fill="none" stroke="#9a32cd" stroke-dasharray="5,2" d="M64.88,-140.54C83.32,-126.27 109.35,-106.11 124.46,-94.42"/>
<polygon fill="#9a32cd" stroke="#9a32cd" points="62.74,-137.77 56.98,-146.66 67.03,-143.31 62.74,-137.77"/>
</a>
</g>
<text xml:space="preserve" text-anchor="start" x="104.19" y="-117.5" font-family="Helvetica,sans-Serif" font-size="10.00" fill="grey">t</text>
</g>
<!-- Node3&#45;&gt;Node1 -->
<g id="edge2_Node000001_Node000003" class="edge">
<title>Node3&#45;&gt;Node1</title>
<g id="a_edge2_Node000001_Node000003"><a xlink:title=" ">
<path fill="none" stroke="#9a32cd" stroke-dasharray="5,2" d="M115.37,-66.54C96.93,-52.27 70.9,-32.11 55.79,-20.42"/>
<polygon fill="#9a32cd" stroke="#9a32cd" points="113.22,-69.31 123.27,-72.66 117.51,-63.77 113.22,-69.31"/>
</a>
</g>
<text xml:space="preserve" text-anchor="start" x="104.19" y="-43.5" font-family="Helvetica,sans-Serif" font-size="10.00" fill="grey">decode</text>
</g>
</g>
</svg>
